<mxfile host="app.diagrams.net" agent="Mozilla/5.0 (Windows NT 10.0; Win64; x64) AppleWebKit/537.36 (KHTML, like Gecko) Chrome/132.0.0.0 Safari/537.36 OPR/117.0.0.0 (Edition std-2)" version="26.1.1">
  <diagram id="R2lEEEUBdFMjLlhIrx00" name="Page-1">
    <mxGraphModel dx="1700" dy="864" grid="1" gridSize="10" guides="1" tooltips="1" connect="1" arrows="1" fold="1" page="0" pageScale="1" pageWidth="850" pageHeight="1100" math="0" shadow="0" extFonts="Permanent Marker^https://fonts.googleapis.com/css?family=Permanent+Marker">
      <root>
        <mxCell id="0" />
        <mxCell id="1" parent="0" />
        <mxCell id="C-vyLk0tnHw3VtMMgP7b-23" value="Clients" style="shape=table;startSize=30;container=1;collapsible=1;childLayout=tableLayout;fixedRows=1;rowLines=0;fontStyle=1;align=center;resizeLast=1;" parent="1" vertex="1">
          <mxGeometry x="-90" y="270" width="250" height="150.14999389648438" as="geometry" />
        </mxCell>
        <mxCell id="C-vyLk0tnHw3VtMMgP7b-24" value="" style="shape=partialRectangle;collapsible=0;dropTarget=0;pointerEvents=0;fillColor=none;points=[[0,0.5],[1,0.5]];portConstraint=eastwest;top=0;left=0;right=0;bottom=1;" parent="C-vyLk0tnHw3VtMMgP7b-23" vertex="1">
          <mxGeometry y="30" width="250" height="30" as="geometry" />
        </mxCell>
        <mxCell id="C-vyLk0tnHw3VtMMgP7b-25" value="PK" style="shape=partialRectangle;overflow=hidden;connectable=0;fillColor=none;top=0;left=0;bottom=0;right=0;fontStyle=1;" parent="C-vyLk0tnHw3VtMMgP7b-24" vertex="1">
          <mxGeometry width="30" height="30" as="geometry">
            <mxRectangle width="30" height="30" as="alternateBounds" />
          </mxGeometry>
        </mxCell>
        <mxCell id="C-vyLk0tnHw3VtMMgP7b-26" value="id_client" style="shape=partialRectangle;overflow=hidden;connectable=0;fillColor=none;top=0;left=0;bottom=0;right=0;align=left;spacingLeft=6;fontStyle=5;" parent="C-vyLk0tnHw3VtMMgP7b-24" vertex="1">
          <mxGeometry x="30" width="220" height="30" as="geometry">
            <mxRectangle width="220" height="30" as="alternateBounds" />
          </mxGeometry>
        </mxCell>
        <mxCell id="C-vyLk0tnHw3VtMMgP7b-27" value="" style="shape=partialRectangle;collapsible=0;dropTarget=0;pointerEvents=0;fillColor=none;points=[[0,0.5],[1,0.5]];portConstraint=eastwest;top=0;left=0;right=0;bottom=0;" parent="C-vyLk0tnHw3VtMMgP7b-23" vertex="1">
          <mxGeometry y="60" width="250" height="90" as="geometry" />
        </mxCell>
        <mxCell id="C-vyLk0tnHw3VtMMgP7b-28" value="" style="shape=partialRectangle;overflow=hidden;connectable=0;fillColor=none;top=0;left=0;bottom=0;right=0;" parent="C-vyLk0tnHw3VtMMgP7b-27" vertex="1">
          <mxGeometry width="30" height="90" as="geometry">
            <mxRectangle width="30" height="90" as="alternateBounds" />
          </mxGeometry>
        </mxCell>
        <mxCell id="C-vyLk0tnHw3VtMMgP7b-29" value="" style="shape=partialRectangle;overflow=hidden;connectable=0;fillColor=none;top=0;left=0;bottom=0;right=0;align=left;spacingLeft=6;" parent="C-vyLk0tnHw3VtMMgP7b-27" vertex="1">
          <mxGeometry x="30" width="220" height="90" as="geometry">
            <mxRectangle width="220" height="90" as="alternateBounds" />
          </mxGeometry>
        </mxCell>
        <mxCell id="JIrwdwUv-hnfIvcJHuTS-1" value="email&#xa;name" style="shape=partialRectangle;overflow=hidden;connectable=0;fillColor=none;top=0;left=0;bottom=0;right=0;align=left;spacingLeft=6;" parent="1" vertex="1">
          <mxGeometry x="-60" y="330" width="220" height="30" as="geometry">
            <mxRectangle width="220" height="30" as="alternateBounds" />
          </mxGeometry>
        </mxCell>
        <mxCell id="JIrwdwUv-hnfIvcJHuTS-2" value="password" style="shape=partialRectangle;overflow=hidden;connectable=0;fillColor=none;top=0;left=0;bottom=0;right=0;align=left;spacingLeft=6;" parent="1" vertex="1">
          <mxGeometry x="-60" y="350" width="220" height="30" as="geometry">
            <mxRectangle width="220" height="30" as="alternateBounds" />
          </mxGeometry>
        </mxCell>
        <mxCell id="JIrwdwUv-hnfIvcJHuTS-3" value="phone&#xa;address&#xa;role" style="shape=partialRectangle;overflow=hidden;connectable=0;fillColor=none;top=0;left=0;bottom=0;right=0;align=left;spacingLeft=6;" parent="1" vertex="1">
          <mxGeometry x="-60" y="370" width="220" height="50" as="geometry">
            <mxRectangle width="220" height="30" as="alternateBounds" />
          </mxGeometry>
        </mxCell>
        <mxCell id="JIrwdwUv-hnfIvcJHuTS-23" value="Cars" style="shape=table;startSize=30;container=1;collapsible=1;childLayout=tableLayout;fixedRows=1;rowLines=0;fontStyle=1;align=center;resizeLast=1;html=1;" parent="1" vertex="1">
          <mxGeometry x="130" y="492" width="182" height="141.15005493164062" as="geometry" />
        </mxCell>
        <mxCell id="JIrwdwUv-hnfIvcJHuTS-24" value="" style="shape=tableRow;horizontal=0;startSize=0;swimlaneHead=0;swimlaneBody=0;fillColor=none;collapsible=0;dropTarget=0;points=[[0,0.5],[1,0.5]];portConstraint=eastwest;top=0;left=0;right=0;bottom=1;" parent="JIrwdwUv-hnfIvcJHuTS-23" vertex="1">
          <mxGeometry y="30" width="182" height="30" as="geometry" />
        </mxCell>
        <mxCell id="JIrwdwUv-hnfIvcJHuTS-25" value="PK" style="shape=partialRectangle;connectable=0;fillColor=none;top=0;left=0;bottom=0;right=0;fontStyle=1;overflow=hidden;whiteSpace=wrap;html=1;" parent="JIrwdwUv-hnfIvcJHuTS-24" vertex="1">
          <mxGeometry width="30" height="30" as="geometry">
            <mxRectangle width="30" height="30" as="alternateBounds" />
          </mxGeometry>
        </mxCell>
        <mxCell id="JIrwdwUv-hnfIvcJHuTS-26" value="id_car" style="shape=partialRectangle;connectable=0;fillColor=none;top=0;left=0;bottom=0;right=0;align=left;spacingLeft=6;fontStyle=5;overflow=hidden;whiteSpace=wrap;html=1;" parent="JIrwdwUv-hnfIvcJHuTS-24" vertex="1">
          <mxGeometry x="30" width="152" height="30" as="geometry">
            <mxRectangle width="152" height="30" as="alternateBounds" />
          </mxGeometry>
        </mxCell>
        <mxCell id="JIrwdwUv-hnfIvcJHuTS-27" value="" style="shape=tableRow;horizontal=0;startSize=0;swimlaneHead=0;swimlaneBody=0;fillColor=none;collapsible=0;dropTarget=0;points=[[0,0.5],[1,0.5]];portConstraint=eastwest;top=0;left=0;right=0;bottom=0;" parent="JIrwdwUv-hnfIvcJHuTS-23" vertex="1">
          <mxGeometry y="60" width="182" height="58" as="geometry" />
        </mxCell>
        <mxCell id="JIrwdwUv-hnfIvcJHuTS-28" value="" style="shape=partialRectangle;connectable=0;fillColor=none;top=0;left=0;bottom=0;right=0;editable=1;overflow=hidden;whiteSpace=wrap;html=1;" parent="JIrwdwUv-hnfIvcJHuTS-27" vertex="1">
          <mxGeometry width="30" height="58" as="geometry">
            <mxRectangle width="30" height="58" as="alternateBounds" />
          </mxGeometry>
        </mxCell>
        <mxCell id="JIrwdwUv-hnfIvcJHuTS-29" value="brand&lt;div&gt;model&lt;/div&gt;&lt;div&gt;year&lt;/div&gt;&lt;div&gt;vin&lt;/div&gt;" style="shape=partialRectangle;connectable=0;fillColor=none;top=0;left=0;bottom=0;right=0;align=left;spacingLeft=6;overflow=hidden;whiteSpace=wrap;html=1;" parent="JIrwdwUv-hnfIvcJHuTS-27" vertex="1">
          <mxGeometry x="30" width="152" height="58" as="geometry">
            <mxRectangle width="152" height="58" as="alternateBounds" />
          </mxGeometry>
        </mxCell>
        <mxCell id="JIrwdwUv-hnfIvcJHuTS-33" value="" style="shape=tableRow;horizontal=0;startSize=0;swimlaneHead=0;swimlaneBody=0;fillColor=none;collapsible=0;dropTarget=0;points=[[0,0.5],[1,0.5]];portConstraint=eastwest;top=0;left=0;right=0;bottom=0;" parent="JIrwdwUv-hnfIvcJHuTS-23" vertex="1">
          <mxGeometry y="118" width="182" height="23" as="geometry" />
        </mxCell>
        <mxCell id="JIrwdwUv-hnfIvcJHuTS-34" value="FK" style="shape=partialRectangle;connectable=0;fillColor=none;top=0;left=0;bottom=0;right=0;editable=1;overflow=hidden;whiteSpace=wrap;html=1;" parent="JIrwdwUv-hnfIvcJHuTS-33" vertex="1">
          <mxGeometry width="30" height="23" as="geometry">
            <mxRectangle width="30" height="23" as="alternateBounds" />
          </mxGeometry>
        </mxCell>
        <mxCell id="JIrwdwUv-hnfIvcJHuTS-35" value="id_client" style="shape=partialRectangle;connectable=0;fillColor=none;top=0;left=0;bottom=0;right=0;align=left;spacingLeft=6;overflow=hidden;whiteSpace=wrap;html=1;" parent="JIrwdwUv-hnfIvcJHuTS-33" vertex="1">
          <mxGeometry x="30" width="152" height="23" as="geometry">
            <mxRectangle width="152" height="23" as="alternateBounds" />
          </mxGeometry>
        </mxCell>
        <mxCell id="JIrwdwUv-hnfIvcJHuTS-53" value="Services" style="shape=table;startSize=30;container=1;collapsible=1;childLayout=tableLayout;fixedRows=1;rowLines=0;fontStyle=1;align=center;resizeLast=1;html=1;" parent="1" vertex="1">
          <mxGeometry x="770" y="216.89999999999998" width="180" height="126.60012817382812" as="geometry" />
        </mxCell>
        <mxCell id="JIrwdwUv-hnfIvcJHuTS-54" value="" style="shape=tableRow;horizontal=0;startSize=0;swimlaneHead=0;swimlaneBody=0;fillColor=none;collapsible=0;dropTarget=0;points=[[0,0.5],[1,0.5]];portConstraint=eastwest;top=0;left=0;right=0;bottom=1;" parent="JIrwdwUv-hnfIvcJHuTS-53" vertex="1">
          <mxGeometry y="30" width="180" height="30" as="geometry" />
        </mxCell>
        <mxCell id="JIrwdwUv-hnfIvcJHuTS-55" value="PK" style="shape=partialRectangle;connectable=0;fillColor=none;top=0;left=0;bottom=0;right=0;fontStyle=1;overflow=hidden;whiteSpace=wrap;html=1;" parent="JIrwdwUv-hnfIvcJHuTS-54" vertex="1">
          <mxGeometry width="30" height="30" as="geometry">
            <mxRectangle width="30" height="30" as="alternateBounds" />
          </mxGeometry>
        </mxCell>
        <mxCell id="JIrwdwUv-hnfIvcJHuTS-56" value="id_service" style="shape=partialRectangle;connectable=0;fillColor=none;top=0;left=0;bottom=0;right=0;align=left;spacingLeft=6;fontStyle=5;overflow=hidden;whiteSpace=wrap;html=1;" parent="JIrwdwUv-hnfIvcJHuTS-54" vertex="1">
          <mxGeometry x="30" width="150" height="30" as="geometry">
            <mxRectangle width="150" height="30" as="alternateBounds" />
          </mxGeometry>
        </mxCell>
        <mxCell id="JIrwdwUv-hnfIvcJHuTS-57" value="" style="shape=tableRow;horizontal=0;startSize=0;swimlaneHead=0;swimlaneBody=0;fillColor=none;collapsible=0;dropTarget=0;points=[[0,0.5],[1,0.5]];portConstraint=eastwest;top=0;left=0;right=0;bottom=0;" parent="JIrwdwUv-hnfIvcJHuTS-53" vertex="1">
          <mxGeometry y="60" width="180" height="36" as="geometry" />
        </mxCell>
        <mxCell id="JIrwdwUv-hnfIvcJHuTS-58" value="" style="shape=partialRectangle;connectable=0;fillColor=none;top=0;left=0;bottom=0;right=0;editable=1;overflow=hidden;whiteSpace=wrap;html=1;" parent="JIrwdwUv-hnfIvcJHuTS-57" vertex="1">
          <mxGeometry width="30" height="36" as="geometry">
            <mxRectangle width="30" height="36" as="alternateBounds" />
          </mxGeometry>
        </mxCell>
        <mxCell id="JIrwdwUv-hnfIvcJHuTS-59" value="&lt;div&gt;name&lt;/div&gt;&lt;div&gt;cost&lt;/div&gt;" style="shape=partialRectangle;connectable=0;fillColor=none;top=0;left=0;bottom=0;right=0;align=left;spacingLeft=6;overflow=hidden;whiteSpace=wrap;html=1;" parent="JIrwdwUv-hnfIvcJHuTS-57" vertex="1">
          <mxGeometry x="30" width="150" height="36" as="geometry">
            <mxRectangle width="150" height="36" as="alternateBounds" />
          </mxGeometry>
        </mxCell>
        <mxCell id="JIrwdwUv-hnfIvcJHuTS-60" value="" style="shape=tableRow;horizontal=0;startSize=0;swimlaneHead=0;swimlaneBody=0;fillColor=none;collapsible=0;dropTarget=0;points=[[0,0.5],[1,0.5]];portConstraint=eastwest;top=0;left=0;right=0;bottom=0;" parent="JIrwdwUv-hnfIvcJHuTS-53" vertex="1">
          <mxGeometry y="96" width="180" height="30" as="geometry" />
        </mxCell>
        <mxCell id="JIrwdwUv-hnfIvcJHuTS-61" value="" style="shape=partialRectangle;connectable=0;fillColor=none;top=0;left=0;bottom=0;right=0;editable=1;overflow=hidden;whiteSpace=wrap;html=1;" parent="JIrwdwUv-hnfIvcJHuTS-60" vertex="1">
          <mxGeometry width="30" height="30" as="geometry">
            <mxRectangle width="30" height="30" as="alternateBounds" />
          </mxGeometry>
        </mxCell>
        <mxCell id="JIrwdwUv-hnfIvcJHuTS-62" value="description" style="shape=partialRectangle;connectable=0;fillColor=none;top=0;left=0;bottom=0;right=0;align=left;spacingLeft=6;overflow=hidden;whiteSpace=wrap;html=1;" parent="JIrwdwUv-hnfIvcJHuTS-60" vertex="1">
          <mxGeometry x="30" width="150" height="30" as="geometry">
            <mxRectangle width="150" height="30" as="alternateBounds" />
          </mxGeometry>
        </mxCell>
        <mxCell id="2OWDPk5x__pAK3UgApRD-4" value="Appointments" style="shape=table;startSize=30;container=1;collapsible=1;childLayout=tableLayout;fixedRows=1;rowLines=0;fontStyle=1;align=center;resizeLast=1;" parent="1" vertex="1">
          <mxGeometry x="390" y="190" width="252" height="147" as="geometry" />
        </mxCell>
        <mxCell id="2OWDPk5x__pAK3UgApRD-5" value="" style="shape=partialRectangle;collapsible=0;dropTarget=0;pointerEvents=0;fillColor=none;points=[[0,0.5],[1,0.5]];portConstraint=eastwest;top=0;left=0;right=0;bottom=1;" parent="2OWDPk5x__pAK3UgApRD-4" vertex="1">
          <mxGeometry y="30" width="252" height="30" as="geometry" />
        </mxCell>
        <mxCell id="2OWDPk5x__pAK3UgApRD-6" value="PK" style="shape=partialRectangle;overflow=hidden;connectable=0;fillColor=none;top=0;left=0;bottom=0;right=0;fontStyle=1;" parent="2OWDPk5x__pAK3UgApRD-5" vertex="1">
          <mxGeometry width="30" height="30" as="geometry">
            <mxRectangle width="30" height="30" as="alternateBounds" />
          </mxGeometry>
        </mxCell>
        <mxCell id="2OWDPk5x__pAK3UgApRD-7" value="id_appointments" style="shape=partialRectangle;overflow=hidden;connectable=0;fillColor=none;top=0;left=0;bottom=0;right=0;align=left;spacingLeft=6;fontStyle=5;" parent="2OWDPk5x__pAK3UgApRD-5" vertex="1">
          <mxGeometry x="30" width="222" height="30" as="geometry">
            <mxRectangle width="222" height="30" as="alternateBounds" />
          </mxGeometry>
        </mxCell>
        <mxCell id="2OWDPk5x__pAK3UgApRD-8" value="" style="shape=partialRectangle;collapsible=0;dropTarget=0;pointerEvents=0;fillColor=none;points=[[0,0.5],[1,0.5]];portConstraint=eastwest;top=0;left=0;right=0;bottom=0;" parent="2OWDPk5x__pAK3UgApRD-4" vertex="1">
          <mxGeometry y="60" width="252" height="87" as="geometry" />
        </mxCell>
        <mxCell id="2OWDPk5x__pAK3UgApRD-9" value="" style="shape=partialRectangle;overflow=hidden;connectable=0;fillColor=none;top=0;left=0;bottom=0;right=0;" parent="2OWDPk5x__pAK3UgApRD-8" vertex="1">
          <mxGeometry width="30" height="87" as="geometry">
            <mxRectangle width="30" height="87" as="alternateBounds" />
          </mxGeometry>
        </mxCell>
        <mxCell id="2OWDPk5x__pAK3UgApRD-10" value="" style="shape=partialRectangle;overflow=hidden;connectable=0;fillColor=none;top=0;left=0;bottom=0;right=0;align=left;spacingLeft=6;" parent="2OWDPk5x__pAK3UgApRD-8" vertex="1">
          <mxGeometry x="30" width="222" height="87" as="geometry">
            <mxRectangle width="222" height="87" as="alternateBounds" />
          </mxGeometry>
        </mxCell>
        <mxCell id="2OWDPk5x__pAK3UgApRD-11" value="status&#xa;created_at&#xa;updated_at&#xa;cost" style="shape=partialRectangle;overflow=hidden;connectable=0;fillColor=none;top=0;left=0;bottom=0;right=0;align=left;spacingLeft=6;" parent="1" vertex="1">
          <mxGeometry x="420" y="248" width="220" height="65" as="geometry">
            <mxRectangle width="220" height="30" as="alternateBounds" />
          </mxGeometry>
        </mxCell>
        <mxCell id="2OWDPk5x__pAK3UgApRD-12" value="id_service" style="shape=partialRectangle;overflow=hidden;connectable=0;fillColor=none;top=0;left=0;bottom=0;right=0;align=left;spacingLeft=6;" parent="1" vertex="1">
          <mxGeometry x="420" y="299" width="220" height="30" as="geometry">
            <mxRectangle width="220" height="30" as="alternateBounds" />
          </mxGeometry>
        </mxCell>
        <mxCell id="2OWDPk5x__pAK3UgApRD-14" value="id_client&#xa;" style="shape=partialRectangle;overflow=hidden;connectable=0;fillColor=none;top=0;left=0;bottom=0;right=0;align=left;spacingLeft=6;" parent="1" vertex="1">
          <mxGeometry x="420" y="320" width="220" height="17" as="geometry">
            <mxRectangle width="220" height="30" as="alternateBounds" />
          </mxGeometry>
        </mxCell>
        <mxCell id="2OWDPk5x__pAK3UgApRD-15" value="FK" style="text;html=1;align=center;verticalAlign=middle;whiteSpace=wrap;rounded=0;" parent="1" vertex="1">
          <mxGeometry x="390" y="299" width="30" height="30" as="geometry" />
        </mxCell>
        <mxCell id="2OWDPk5x__pAK3UgApRD-16" value="Notifications" style="shape=table;startSize=30;container=1;collapsible=1;childLayout=tableLayout;fixedRows=1;rowLines=0;fontStyle=1;align=center;resizeLast=1;html=1;" parent="1" vertex="1">
          <mxGeometry x="380" y="400" width="181" height="118" as="geometry" />
        </mxCell>
        <mxCell id="2OWDPk5x__pAK3UgApRD-17" value="" style="shape=tableRow;horizontal=0;startSize=0;swimlaneHead=0;swimlaneBody=0;fillColor=none;collapsible=0;dropTarget=0;points=[[0,0.5],[1,0.5]];portConstraint=eastwest;top=0;left=0;right=0;bottom=1;" parent="2OWDPk5x__pAK3UgApRD-16" vertex="1">
          <mxGeometry y="30" width="181" height="30" as="geometry" />
        </mxCell>
        <mxCell id="2OWDPk5x__pAK3UgApRD-18" value="PK" style="shape=partialRectangle;connectable=0;fillColor=none;top=0;left=0;bottom=0;right=0;fontStyle=1;overflow=hidden;whiteSpace=wrap;html=1;" parent="2OWDPk5x__pAK3UgApRD-17" vertex="1">
          <mxGeometry width="30" height="30" as="geometry">
            <mxRectangle width="30" height="30" as="alternateBounds" />
          </mxGeometry>
        </mxCell>
        <mxCell id="2OWDPk5x__pAK3UgApRD-19" value="id_notification" style="shape=partialRectangle;connectable=0;fillColor=none;top=0;left=0;bottom=0;right=0;align=left;spacingLeft=6;fontStyle=5;overflow=hidden;whiteSpace=wrap;html=1;" parent="2OWDPk5x__pAK3UgApRD-17" vertex="1">
          <mxGeometry x="30" width="151" height="30" as="geometry">
            <mxRectangle width="151" height="30" as="alternateBounds" />
          </mxGeometry>
        </mxCell>
        <mxCell id="2OWDPk5x__pAK3UgApRD-20" value="" style="shape=tableRow;horizontal=0;startSize=0;swimlaneHead=0;swimlaneBody=0;fillColor=none;collapsible=0;dropTarget=0;points=[[0,0.5],[1,0.5]];portConstraint=eastwest;top=0;left=0;right=0;bottom=0;" parent="2OWDPk5x__pAK3UgApRD-16" vertex="1">
          <mxGeometry y="60" width="181" height="31" as="geometry" />
        </mxCell>
        <mxCell id="2OWDPk5x__pAK3UgApRD-21" value="" style="shape=partialRectangle;connectable=0;fillColor=none;top=0;left=0;bottom=0;right=0;editable=1;overflow=hidden;whiteSpace=wrap;html=1;" parent="2OWDPk5x__pAK3UgApRD-20" vertex="1">
          <mxGeometry width="30" height="31" as="geometry">
            <mxRectangle width="30" height="31" as="alternateBounds" />
          </mxGeometry>
        </mxCell>
        <mxCell id="2OWDPk5x__pAK3UgApRD-22" value="&lt;div&gt;message&lt;/div&gt;&lt;div&gt;send_at&lt;/div&gt;" style="shape=partialRectangle;connectable=0;fillColor=none;top=0;left=0;bottom=0;right=0;align=left;spacingLeft=6;overflow=hidden;whiteSpace=wrap;html=1;" parent="2OWDPk5x__pAK3UgApRD-20" vertex="1">
          <mxGeometry x="30" width="151" height="31" as="geometry">
            <mxRectangle width="151" height="31" as="alternateBounds" />
          </mxGeometry>
        </mxCell>
        <mxCell id="2OWDPk5x__pAK3UgApRD-23" value="" style="shape=tableRow;horizontal=0;startSize=0;swimlaneHead=0;swimlaneBody=0;fillColor=none;collapsible=0;dropTarget=0;points=[[0,0.5],[1,0.5]];portConstraint=eastwest;top=0;left=0;right=0;bottom=0;" parent="2OWDPk5x__pAK3UgApRD-16" vertex="1">
          <mxGeometry y="91" width="181" height="27" as="geometry" />
        </mxCell>
        <mxCell id="2OWDPk5x__pAK3UgApRD-24" value="" style="shape=partialRectangle;connectable=0;fillColor=none;top=0;left=0;bottom=0;right=0;editable=1;overflow=hidden;whiteSpace=wrap;html=1;" parent="2OWDPk5x__pAK3UgApRD-23" vertex="1">
          <mxGeometry width="30" height="27" as="geometry">
            <mxRectangle width="30" height="27" as="alternateBounds" />
          </mxGeometry>
        </mxCell>
        <mxCell id="2OWDPk5x__pAK3UgApRD-25" value="" style="shape=partialRectangle;connectable=0;fillColor=none;top=0;left=0;bottom=0;right=0;align=left;spacingLeft=6;overflow=hidden;whiteSpace=wrap;html=1;" parent="2OWDPk5x__pAK3UgApRD-23" vertex="1">
          <mxGeometry x="30" width="151" height="27" as="geometry">
            <mxRectangle width="151" height="27" as="alternateBounds" />
          </mxGeometry>
        </mxCell>
        <mxCell id="jOg-RNwgv6HaoWjcEqRT-1" value="FK" style="text;html=1;align=center;verticalAlign=middle;whiteSpace=wrap;rounded=0;" parent="1" vertex="1">
          <mxGeometry x="390" y="313.5" width="30" height="30" as="geometry" />
        </mxCell>
        <mxCell id="9pgNmpuQFn2WDpzuC3rF-1" value="FK" style="shape=partialRectangle;connectable=0;fillColor=none;top=0;left=0;bottom=0;right=0;editable=1;overflow=hidden;whiteSpace=wrap;html=1;" vertex="1" parent="1">
          <mxGeometry x="380" y="491" width="30" height="23" as="geometry">
            <mxRectangle width="30" height="23" as="alternateBounds" />
          </mxGeometry>
        </mxCell>
        <mxCell id="9pgNmpuQFn2WDpzuC3rF-2" value="id_client" style="shape=partialRectangle;connectable=0;fillColor=none;top=0;left=0;bottom=0;right=0;align=left;spacingLeft=6;overflow=hidden;whiteSpace=wrap;html=1;" vertex="1" parent="1">
          <mxGeometry x="410" y="491" width="152" height="23" as="geometry">
            <mxRectangle width="152" height="23" as="alternateBounds" />
          </mxGeometry>
        </mxCell>
        <mxCell id="9pgNmpuQFn2WDpzuC3rF-4" value="" style="edgeStyle=entityRelationEdgeStyle;fontSize=12;html=1;endArrow=ERoneToMany;rounded=0;entryX=0;entryY=0.5;entryDx=0;entryDy=0;" edge="1" parent="1" target="2OWDPk5x__pAK3UgApRD-20">
          <mxGeometry width="100" height="100" relative="1" as="geometry">
            <mxPoint x="160" y="350" as="sourcePoint" />
            <mxPoint x="240" y="700" as="targetPoint" />
          </mxGeometry>
        </mxCell>
        <mxCell id="9pgNmpuQFn2WDpzuC3rF-5" value="" style="edgeStyle=entityRelationEdgeStyle;fontSize=12;html=1;endArrow=ERoneToMany;rounded=0;exitX=1;exitY=0.5;exitDx=0;exitDy=0;entryX=-0.002;entryY=0.197;entryDx=0;entryDy=0;entryPerimeter=0;" edge="1" parent="1" source="C-vyLk0tnHw3VtMMgP7b-24" target="2OWDPk5x__pAK3UgApRD-8">
          <mxGeometry width="100" height="100" relative="1" as="geometry">
            <mxPoint x="490" y="500" as="sourcePoint" />
            <mxPoint x="590" y="400" as="targetPoint" />
          </mxGeometry>
        </mxCell>
        <mxCell id="9pgNmpuQFn2WDpzuC3rF-6" value="" style="fontSize=12;html=1;endArrow=ERoneToMany;rounded=0;entryX=0;entryY=0.5;entryDx=0;entryDy=0;edgeStyle=orthogonalEdgeStyle;" edge="1" parent="1" target="JIrwdwUv-hnfIvcJHuTS-27">
          <mxGeometry width="100" height="100" relative="1" as="geometry">
            <mxPoint x="70" y="420" as="sourcePoint" />
            <mxPoint x="399" y="277" as="targetPoint" />
          </mxGeometry>
        </mxCell>
        <mxCell id="9pgNmpuQFn2WDpzuC3rF-7" value="" style="edgeStyle=entityRelationEdgeStyle;fontSize=12;html=1;endArrow=ERoneToMany;startArrow=ERoneToMany;rounded=0;entryX=0;entryY=0.5;entryDx=0;entryDy=0;exitX=1;exitY=0.5;exitDx=0;exitDy=0;" edge="1" parent="1" source="2OWDPk5x__pAK3UgApRD-5" target="JIrwdwUv-hnfIvcJHuTS-57">
          <mxGeometry width="100" height="100" relative="1" as="geometry">
            <mxPoint x="440" y="440" as="sourcePoint" />
            <mxPoint x="540" y="340" as="targetPoint" />
          </mxGeometry>
        </mxCell>
      </root>
    </mxGraphModel>
  </diagram>
</mxfile>
